<svg xmlns="http://www.w3.org/2000/svg" width="960" height="280" viewBox="0 0 960 280" fill="none" role="img" aria-labelledby="title desc">
  <title id="title">happys — Backend, AI, and open source</title>
  <desc id="desc">Reliable systems. Thoughtful tools. Build, explore, share.</desc>
  <defs>
    <linearGradient id="accent" x1="596" y1="40" x2="905" y2="246" gradientUnits="userSpaceOnUse"><stop stop-color="#6FDCEB"/><stop offset="0.5" stop-color="#8B9BFF"/><stop offset="1" stop-color="#BD9BFF"/></linearGradient>
    <radialGradient id="glow"><stop stop-color="#8B9BFF" stop-opacity="0.18"/><stop offset="1" stop-color="#8B9BFF" stop-opacity="0"/></radialGradient>
    <clipPath id="frame"><rect x="0.5" y="0.5" width="959" height="279" rx="20"/></clipPath>
  </defs>
  <g clip-path="url(#frame)">
    <rect width="960" height="280" fill="#0B1020"/>
    <ellipse cx="756" cy="140" rx="300" ry="250" fill="url(#glow)"/>
    <path d="M595 0V280M659 0V280M723 0V280M787 0V280M851 0V280M915 0V280M564 44H960M564 108H960M564 172H960M564 236H960" stroke="#24304A" stroke-opacity="0.32"/>
    <g font-family="-apple-system, BlinkMacSystemFont, 'Segoe UI', Helvetica, Arial, sans-serif">
      <text x="48" y="50" fill="#ACB9D4" font-size="12" font-weight="600" letter-spacing="2.2">BACKEND / AI / OPEN SOURCE</text>
      <text x="43" y="144" fill="#F4F7FF" font-size="88" font-weight="700" letter-spacing="-4">happys<tspan fill="#8B9BFF">.</tspan></text>
      <text x="48" y="186" fill="#ACB9D4" font-size="21" letter-spacing="-0.25">Reliable systems. Thoughtful tools.</text>
      <path d="M48 222H430" stroke="#24304A"/>
      <text x="48" y="250" fill="#ACB9D4" font-size="11" font-weight="500" letter-spacing="2.6">BUILD · EXPLORE · SHARE</text>
    </g>
    <g stroke="url(#accent)"><ellipse cx="754" cy="140" rx="154" ry="76" transform="rotate(-28 754 140)" stroke-opacity="0.7"/><ellipse cx="754" cy="140" rx="93" ry="115" transform="rotate(24 754 140)" stroke-opacity="0.4"/></g>
    <g transform="rotate(-8 754 140)">
      <rect x="688" y="74" width="132" height="132" rx="29" fill="#141D36" stroke="url(#accent)" stroke-opacity="0.7"/>
      <path d="M724 103V173M724 141C724 123 769 122 769 145V173" stroke="#F4F7FF" stroke-width="11" stroke-linecap="round"/>
      <circle cx="789" cy="171" r="5.5" fill="#8B9BFF"/>
    </g>
    <circle cx="613" cy="199" r="5" fill="#6FDCEB"/><circle cx="877" cy="58" r="5" fill="#BD9BFF"/><circle cx="823" cy="235" r="3" fill="#8B9BFF"/>
    <path d="M866 211H878M872 205V217M624 57H632M628 53V61" stroke="#ACB9D4" stroke-opacity="0.55" stroke-linecap="round"/>
  </g>
  <rect x="0.5" y="0.5" width="959" height="279" rx="20" stroke="#24304A"/>
</svg>
